<svg id="Calque_2" data-name="Calque 2" xmlns="http://www.w3.org/2000/svg" viewBox="0 0 509.72 143.36"><defs><style>.cls-1{fill:#fff;stroke:#fff;stroke-miterlimit:10;stroke-width:2px;}</style></defs><title>animated_logo_background</title><path class="cls-1" d="M268,20.73s12.13,12.86,16,35.51a19.48,19.48,0,0,0,5.89,11c12.11,11.18,38,10.72,46.33,11a4.54,4.54,0,0,1,3.66,2.08c5.21,8.06,8.59,30.41-5,66.71h30s2.58-14.52-2-44.51c-3.2-21.12-1-31.81.62-36.28a4.2,4.2,0,0,1,3.65-2.77c7.77-.6,32.23-4.33,44.59-27.42A17.6,17.6,0,0,0,413.28,32c1.11-4.53,4.74-16.39,13.2-21.72,0,0-12.79-8-34-2.66S361.8,33.86,361.8,33.86s-4.73,8.22-1.51,20.12a9.27,9.27,0,0,1-.23,5.66c-2.24,6-7.76,21.15-9.31,29.85,0,0-1.39-5.37-6.78-11.81a17.52,17.52,0,0,1-3.68-7.48C337.74,58.73,325.53,27.25,268,20.73Z" transform="translate(-17.79 -4.78)"/><path class="cls-1" d="M82.76,15l-62.58.61s0,131.3,0,131.3H82.76C175.75,146.92,171.83,14.58,82.76,15Zm4.37,110.73H44.69V36.43l42.44-.08C140.05,39.28,140.34,122.52,87.13,125.74Z" transform="translate(-17.79 -4.78)"/><path class="cls-1" d="M491,16.58a37.74,37.74,0,0,0-10.14-1.37H434.65a2.46,2.46,0,0,0-1.67.64c-2.08,1.86-9.27,7.71-10.64,17.25-1.4,7-5.59,12.25-7.21,14.4a3.06,3.06,0,0,0-.61,1.84v97.8H439.3V109.87h38.61a39.57,39.57,0,0,0,10-1.24c12.24-3.18,38.61-13.8,38.61-46.27C526.51,30.48,502.7,19.88,491,16.58ZM476.23,87.64H439V35.47h37.22C508.81,38.13,509.18,84.9,476.23,87.64Z" transform="translate(-17.79 -4.78)"/><path class="cls-1" d="M244.08,104.45c20-7.23,29.15-22.22,29.18-43.77,0-25.59-16.69-41.46-42.73-45.11a47,47,0,0,0-6.92-.4C211.25,15.29,161,15,161,15V147.11h24.92V109.84h35.7l25.59,37.27h28.29ZM223.46,87.64H186.11V35.7c.26-.27,37.35,0,37.35,0C256.27,37.88,256.87,84.88,223.46,87.64Z" transform="translate(-17.79 -4.78)"/></svg>