<svg id="Calque_1" data-name="Calque 1" xmlns="http://www.w3.org/2000/svg" viewBox="0 0 130 31"><defs><style>.cls-1{fill:#f5e7b4;}</style></defs><title>Plan de travail 1</title><path class="cls-1" d="M95.14,14.72C77.61,20.53,71,38.73,71,38.73s-3.48,7.2,0,17a7.74,7.74,0,0,1,.17,4.78c-.34,1.18-.81,2.79-1.31,4.6a5.17,5.17,0,0,1,.68.39,3.39,3.39,0,0,1,.63.57,3.32,3.32,0,0,1,.71.4L73.88,68c.14-.79.31-1.49.44-2.06a3.56,3.56,0,0,1,2.89-2.58c6.49-1,26.9-5.64,35.84-25.85a14.67,14.67,0,0,0,1.06-3.55c.69-3.87,3-14.1,9.77-19.11C123.94,14.85,112.66,8.91,95.14,14.72Z"/><path class="cls-1" d="M6.11,11.8c7.1,4.58,10,14.65,10.93,18.47a14.83,14.83,0,0,0,1.28,3.48c10.16,19.62,30.82,23,37.37,23.59a3.57,3.57,0,0,1,3,2.39c.17.56.37,1.25.56,2l2-1.6a3.61,3.61,0,0,1,.69-.46,3.35,3.35,0,0,1,.59-.6,6.64,6.64,0,0,1,.65-.43c-.6-1.78-1.18-3.36-1.59-4.51a7.81,7.81,0,0,1-.13-4.78c2.83-10-1.08-17-1.08-17S52.64,14.64,34.79,9.92,6.05,11.83,6.11,11.8Z"/></svg>