<svg id="Calque_1" data-name="Calque 1" xmlns="http://www.w3.org/2000/svg" viewBox="0 0 91.04 200.84"><defs><style>.cls-1{fill:#f6eabe;}.cls-2{fill:#fff;}</style></defs><title>branches</title><path class="cls-1" d="M99.24,30V26c-1.92-.05-2.37,1.68-3.2,2.8-7,9.41-13.74,19-20,28.91-4,6.4-4,6.19-9.1.65-1.68-1.84-3.15-5.69-6.66-3.61-3.83,2.29-1.23,5.57-.39,8.46.09.31.33.58.42.9.35,1.26,2.81,2.2.94,3.75s-4,1.88-6,.36c-1.55-1.2-2.67-3-4.17-4.23-2.48-2.11-5.47-3.49-7.8-.27-2.57,3.56,1.22,4.69,3.24,6.38,1.4,1.18,4.71,1.07,4,3.44-.62,2.16-3.54,2.81-5.81,3.3a10.13,10.13,0,0,1-3.41-.36c-2.94-.42-5.88-.84-8.81-1.31-1.32-.21-2.45.13-2.8,1.43-.39,1.45.79,2,2,2.37a7.64,7.64,0,0,1,1.86.68c1.18.76,3.7.91,3.1,2.54a3.75,3.75,0,0,1-4.9,2.19A38,38,0,0,0,24.44,83c-2.39-.28-4.61.59-4.91,3.12-.35,2.93,2.17,2.75,4.17,2.88,1.16.07,2.63.09,2.27,1.8s-1.85,1.34-2.88.94a14.71,14.71,0,0,0-6.88-.71c-2.61.24-4,2.66-2.5,4.12,3.75,3.63.57,4.68-1.57,6.48a17.15,17.15,0,0,0-3.38,3.64,2.88,2.88,0,0,0,.63,4c1.3,1,2.51.4,3.55-.59,1.21-1.15,2.35-2.36,3.56-3.51,1.61-1.52,3.31-3.8,4,.71a3,3,0,0,0,2.66,2.62c1.92.08,2.22-1.78,2.77-3.09.84-2-.2-4.75,2.44-6.13,1.39,1.08,1.19,3.87,3.71,3.44s2-2.74,2.52-4.38c1-3.16,1.82-6.38,2.88-9.52.59-1.74,1.15-3.71,4-4.35a45.25,45.25,0,0,0-1.17,14.21c0,1.34.6,2.36,2.17,1.87,1-.32,1.73-1.06,1-2.27-.3-.55-1.19-1.07-.65-1.69,4-4.64,3.78-10.88,6.09-16.15a17,17,0,0,1,1.47-3.1c.69-1,1.8-1.8,3-1.06s.22,1.78,0,2.67c-.67,2.23-1.49,4.41-2,6.67-.23,1-.48,2.5,1,3S54.6,88.21,55,87c1.62-4.58,4.82-8.47,6.34-12.93,1.4-4.09,4-5,8.17-6.11-1,2.26-1.67,3.72-2.36,5.16-4.08,8.56-8.4,17-12.21,25.7-3.58,8.14-6.8,10.1-15.63,8.77-3.06-.46-6.76.25-7.61,3.23-1,3.62,2.9,3.55,5.31,4.3.2.06.29.49.44.76-1.1,2.21-3.11,2.27-5.14,2.07-3.6-.36-6.4,1.62-9.28,3.2-1.51.83-2.91,2.21-.36,3.65,1,.58,3.28-.52,3,1.52-.24,1.76-2.3,2.22-3.95,2.54-9.26,1.8-9.65,2.47-6.54,11.59,1.38.52,2.51-2.59,3.78-.43.78,1.34.85,4.12,2.93,2.2s6-5.49,4.62-7c-4.24-4.56.85-4.67,1.91-7,1.51,1.87-.07,5.17,2.7,5.16,2.53,0,3.53-2.51,4.37-4.8a17.43,17.43,0,0,0,.73-5.89c0-1.36.09-3.17,1.65-3.18,2,0,1.09,2,1.26,3.15s-.2,2.83,1.62,3.19c2.11.42,2.2-1.43,2.95-2.66,1.87-3.06,2.21-6.92,4.85-9.8.25.57.56.92.48,1.14-3.38,9.72-6.56,19.52-10.32,29.09-1.59,4-4.21,7.77-9.9,5.48-1.8-.72-3.61,0-4.85,1.7-1.36,1.82-.19,3,.94,4.34C27.34,158,25,159,23,159.83c-1.16.46-2.65,0-4,.23-2,.31-4.31,2.63-3.42,3.3,3.9,2.92.31,5.83.67,8.61.19,1.53-1,4,1.07,4.34s2.61-1.9,2.94-3.83c.67-3.89,1.42-7.81,5.42-9.83,1.2,1.33-.45,4,2.13,4.14,2.09.14,2.57-1.91,3.19-3.37.91-2.13,1.53-4.37,2.27-6.57.51-1.56.44-3.45,3.33-5.11-1.77,5.59-3.1,10.12-4.65,14.59-.74,2.16-.92,4.77-3,6.16-4.18,2.76-6.29,7.23-9.23,11-1.32,1.69-4,4.33-1.49,6.54,2.3,2,4-1.15,5.86-2.18.22-.12.58,0,1,0,.68,3.41,2.68,6.57-.84,10.06-2.05,2,.45,4.38,2.4,5.53,2.2,1.3,2.82-.9,3.41-2.38a18.06,18.06,0,0,0,1.22-7.82c-.09-1.5-.15-3.16,2.06-3.24,4.37-.18,4.4-2.63,3.08-5.81-1-2.45-2.14-4.87-3.05-7.36-2-5.44.76-9.8,2.85-15.26,1.7,3.19,0,6.68,3.75,7.79.41-.89.79-1.79,1.23-2.66.54-1.09-.83-3.67,1.74-3.06,1.85.44,1.19,2.38.62,3.83a17.81,17.81,0,0,0-1.3,8.3c.14,1.43.89,3.36,2.08,2.84,5.22-2.32,5,2.84,6.9,5.17,1.55-2.23,2-3.86.62-6.17-.71-1.17-4.41-6,2.23-3.89a2.35,2.35,0,0,0,2.09-4.12c-1.16-.91-2.49-2.31-3.73-2.29-4.58.09-5.8-3.05-7.1-6.39s-1.7-5.52,3.2-4.07c1.69.5,3.81.36,4.5-2,.61-2.13-.6-3.5-2.24-4.55A8.91,8.91,0,0,0,46.6,149c-5.29-.41-6.15-1.77-4.48-7,2-6.33,4-12.68,6.28-18.93,1.92-5.33,4.19-10.52,6.38-15.94a2.81,2.81,0,0,1,1.3,3.61c-1.67,5.74-.52,11.59-.82,17.38-.08,1.54.12,3.16,1.94,3.6,2.2.53,2.75-1.32,3.53-2.77,1.23-2.32-.36-5.24,1.48-7.76,2.36,2.67,3.3,4.56.91,7.94-2.17,3.07-1.06,7.4-.48,11.16a2.55,2.55,0,0,0,2.85,2.27c1.65-.3,1.6-1.82,1.77-3.17.27-2.3-.77-4.83,1.06-7.25,2.19,2.56,3.31,4.93,1.77,7.94a9.6,9.6,0,0,0-.86,4.86c.1,2.79-.08,6.59,2.32,7.55,3.28,1.31,2-3.83,4.62-4.9,2.25,2.21,2.49,5.93,5.14,8.2,1.85-2.65-.07-4.37-.79-6.23-2.25-5.79-2.29-5.78,3.65-5.56a19.11,19.11,0,0,0,2,0c1.71-.12,2.88-.93,3-2.74C89.2,139,87.57,139,86,139s-3.52-.29-4.94.33c-5.76,2.54-6.84-2.51-8.06-5.5-1.57-3.84,2.85-2.45,4.5-3.39,2.26-1.3,3.42-2.93,2.44-5.23-.9-2.1-2.89-2.49-5.07-1.58a17.72,17.72,0,0,1-3.8,1.22c-2.57.45-7.16-3.9-7.49-7.43-.36-3.91,2.88-2,4.58-2.39,3.35-.7,6.85-4.64,5.93-7.42-1.28-3.84-4.42-3.93-7.76-3.11-1.13.27-2.29.43-3.4.76-1.57.48-3.19,1.53-4.56-.19a5.42,5.42,0,0,1-.76-5.68,203.49,203.49,0,0,1,15.15-29.6A24.87,24.87,0,0,1,73.24,75,44.51,44.51,0,0,0,75.7,88.65c.66,1.81,1.51,4.32,3.91,3.76,2.06-.48,2.55-2.88,2.6-5,.07-2.89,0-5.78,0-9.4,5.13,3.72,4.41,8.19,3.62,12.31a26.3,26.3,0,0,0,.33,12.29c.47,1.73.42,4.14,2.81,4s2.79-2.55,3.19-4.51-.51-4.42.67-6.73c3.19,3.4,4.62,6.53,3.61,11.08-.87,3.89-.7,8.29,2.78,11.5V99a19.92,19.92,0,0,1-4.73-8.08c1.68-1.24,3.19.63,4.73.08V88a13.92,13.92,0,0,1-3.87-.52c-1.25-.54-3.55.3-3.64-1.7a3.71,3.71,0,0,1,3.2-3.84c1.44-.3,2.87-.63,4.31-.94V79c-1.32.05-3-.39-3.91.24-5.63,3.84-8.1.19-10.85-4C82.85,72.81,83.39,71.92,86,72c4.44.17,8.85.63,13.28,1V71c-5.71-.68-11.41-1.38-17.12-2-1.63-.19-3.27-1-3.26-2.51,0-2.26,2.19-1.25,3.45-1.4,5.93-.71,11.39,1.36,16.93,3V65a81,81,0,0,0-19-3c-1.49,0-3.68-.09-2.23-2.34C84.63,49.47,90.6,38.78,99.24,30Zm-85,75s-4,3-3,1,4.75-3.88,5-4Zm6-10c-1,1-3,0-3,0s-3-1-1-2,5,0,5,0A3.1,3.1,0,0,1,20.25,95Zm4,12c-1,2-3-3-3-3l3-3S25.25,105,24.25,107Zm2-19c-2.09.42-3.77-.19-4.22-1.27A1.81,1.81,0,0,1,22.25,85c.91-1.11,3.72-.65,7,1C29.25,86,30.25,87,26.25,88Zm4,10a29.58,29.58,0,0,1,3-4S33.25,107,30.25,98Zm7-18c-.74.15-.82-.32-3-1-1.09-.34-1.74-.44-2-1a1.2,1.2,0,0,1,0-1c.34-.57,1.86-.74,7,1C38.48,79.7,37.5,80,37.25,80Zm5,15q-.64-.14,1-11l3-1Q42.94,95.15,42.25,95Zm9-26h-.06a0,0,0,0,0,0,0,2.69,2.69,0,0,1-.92-.16c-1.75-1-4.24-.93-4.82-3.46,0-.25.61-1,.83-.92,2.51.54,4.56,1.65,4.91,4.54h0s0,0,0,0l1.24.33C51.82,70.26,51.61,69.43,51.29,69Zm2,17q-.64-.25,2-9l4-2Q54,86.3,53.25,86ZM65.08,64.79a6.62,6.62,0,0,1-3.66-5.23c-.13-.72.53-1.46,1.16-1.17a7.84,7.84,0,0,1,4.27,5.16C67.13,64.55,66.34,65,65.08,64.79ZM21.85,140.71c-.9,0-1-2.6-2.75-3-1.21-.29-2,.78-2.85.31-1.05-.55-1-2.49-1-3a4.17,4.17,0,0,1,1-3c1.36-1.37,3.84-1.23,5.38-.17A4.62,4.62,0,0,1,23.25,134C24.43,137,22.92,140.69,21.85,140.71ZM26.25,124c-.92-.29-2.11-1.16-2-2,.26-1.93,7.43-3.23,8-2C32.72,121,29.21,125,26.25,124Zm7,6c-.42.73-1.23,2.12-2,2s-1.71-2.46-1-4c.3-.65.64-.66,2-2,1.52-1.5,1.72-2.09,2-2C34.88,124.21,34.75,127.42,33.25,130Zm6-18.08a11.23,11.23,0,0,0-.73,2.56,14.14,14.14,0,0,0-1.35-.52c-1.7-.56-2.24-.41-2.94-1a2.27,2.27,0,0,1-1-2c.17-.84,1.16-1.25,1.73-1.48a6.35,6.35,0,0,1,2.54-.33,22.16,22.16,0,0,1,3.21.23A10.85,10.85,0,0,0,39.27,111.92Zm4.46,8.77a7.8,7.8,0,0,1-1.28,3.08c-.13.16-1.07,1.33-1.59,1s-.35-1.21-.29-2.87c.08-2.29.12-2.75.29-3.13A4.11,4.11,0,0,1,42,117.42c1-.92,2.35-2.09,2.79-1.65C45.05,116,44.86,116.48,43.73,120.69ZM16.46,163.23a1.69,1.69,0,0,1,.41-1.13c1-1.23,3.3-1.27,3.61-.64.11.22-.15.62-.67,1.39-.82,1.24-1.23,1.86-1.79,1.88A1.69,1.69,0,0,1,16.46,163.23Zm3.14,8.25c-.43,2-.38,3-1.2,3.44a1.24,1.24,0,0,1-1.17,0c-.58-.41-.14-1.46.35-4.65.31-2,.3-2.63.92-3.06a1.71,1.71,0,0,1,2,0C21,167.77,20.24,168.65,19.6,171.48Zm10.77-8.19a3.64,3.64,0,0,1-1.2,2c-.21.15-1,.71-1.65.46a2.17,2.17,0,0,1-.87-2.56l.83-1.34c1.25-1.41,2.53-2.23,3.08-1.89C31.33,160.38,30.49,163,30.37,163.29ZM29.42,154c-1.36,1.24-1.57,2-2.25,1.94-.49,0-.87-.46-1.65-1.36s-1.2-1.38-1.17-2a2.29,2.29,0,0,1,1.34-1.73,3.07,3.07,0,0,1,1.81-.16c.64.07,3.92.46,4,1.48C31.54,152.64,30.83,152.71,29.42,154Zm-5.21,32c-.44.46-.92.13-2,.66-1.41.73-1.72,1.94-2.17,1.8s-.51-1.19-.33-2A6.07,6.07,0,0,1,21,184.12c1.41-2,1.36-2.82,1.83-2.83C23.88,181.27,25.27,184.83,24.21,186ZM29.87,195c-.37,3.18-.75,6.5-2.16,7a2.1,2.1,0,0,1-2.29-1.56,4,4,0,0,1,.25-2.37c1.06-3.74,1.3-3.82,1.52-5,.61-3.07-.58-5,.23-5.75.48-.45,1.35-.14,1.87.38C30.58,189,30.23,192,29.87,195Zm3.59-12.75c.38,0,.32.91,1,2.46s1.21,1.85,1,2.63a1.93,1.93,0,0,1-.92,1.16,2.47,2.47,0,0,1-1.62.13c-.67-.09-1-.14-1.25-.38-.65-.63-.26-2,0-3a7.09,7.09,0,0,1,.46-1.21C32.58,183.23,33,182.25,33.46,182.29ZM40.33,166c-.38.85-1.24,1.55-1.58,1.38s-.11-1,0-1.8c.28-3.34-1.49-5.65-1.08-5.87S39,160.82,39.58,162C40.05,162.81,41,164.54,40.33,166Zm10.5,2.46c.68-.33,1.5.2,2.83,1.05,1.15.74,1.3,1.19,1.34,1.33a1.74,1.74,0,0,1-.75,2c-.45.16-.68-.25-1.75-.54s-1.59,0-2-.32C49.64,171.35,49.77,169,50.83,168.5Zm-1.12,9c0-.21.15-.67.37-.71s.47.59,1.28,1.9c.51.83.64.92.68,1.27.1.85-.5,1.79-.91,1.75-.17,0-.27-.18-.69-1.24C49.69,178.6,49.58,178.08,49.71,177.5Zm-5-8.38c.62,0,1.14,2.26,1.21,3.86,0,.92.16,3.29-1.13,4a1.4,1.4,0,0,1-1.33,0c-.37-.26-.57-.87-.16-3.27S44.08,169.13,44.71,169.12Zm-.74-16c.15-.48.66-.45.94-1,.4-.78-.31-1.45,0-1.86.45-.62,2.86-.07,4.58,1.41.82.71,2.18,2.23,1.73,3.08-.24.46-1,.52-2.48.62-1.91.13-3.16.22-4-.61C44.28,154.44,43.79,153.74,44,153.17ZM80.25,141c1.32-.32,6.27-1.44,7,0a1.24,1.24,0,0,1,0,1c-.2.42-.73.81-3,1a23.89,23.89,0,0,1-4,0Zm-1.85,7.13c.17-.22.25-.29.33-.28l.11,0a.38.38,0,0,0,.17,0c.21,0,.46,2.07,1.13,3.25a11.58,11.58,0,0,1,.8,1.67,3.15,3.15,0,0,1,.19.84c0,.23.05.66,0,.7s-.54-1.1-1.35-2.53c-.53-.93-.89-2-1.5-2.87a.55.55,0,0,1-.11-.33S78.14,148.46,78.4,148.13ZM78.25,126a2.44,2.44,0,0,1,0,2,3.77,3.77,0,0,1-4,2c-.67-1.33-1.33-2.67-2-4C75.06,124.64,77.54,124.86,78.25,126ZM74.5,147A11,11,0,0,1,74,149c-.39,1.14-.65,1.91-1.28,2.09a1.79,1.79,0,0,1-1.53-.5,4,4,0,0,1-1.17-3c-.15-1.78-.15-5.76,1-6C72.34,141.4,74.29,146.4,74.5,147ZM65.25,129c.74-.15,1.5.47,2,1-1.5,8.17-2.42,10-3,10-.76-.05-1.23-3.38-1-6C63.33,133.05,63.65,129.32,65.25,129Zm-3.67-19.52c.29-2.64,3.72-1.85,5.28-2.58,2,.3,4.23-.48,4.28,2.08,0,2.77-2.29,3.84-4.35,3.73S61.26,112.39,61.58,109.48ZM58.2,117c1.72,3.51,1,6.4.37,9.29C56.93,122.63,56.91,121.85,58.2,117Zm29.05-26.2c3,1.15,3.93,2.52,4.22,3.53.38,1.33-.39,1.7-.53,4.57-.14,2.7.48,3.83-.41,4.78-.56.59-1.58,1-2.12.62a1.33,1.33,0,0,1-.47-1c-.34-3.15-1.12-3-1.22-6.59A25.31,25.31,0,0,1,87.25,90.81Zm-7.82-1.37c-4.08-6.54-3.19-12.67-3.08-19.12C79.83,73.26,81.08,80.87,79.43,89.44Z" transform="translate(-8.2 -3.03)"/><path class="cls-1" d="M82.36,4.59C81,3.4,79.64,2.53,77.89,3.35s-1.68,2.71-1.62,4.37a7.84,7.84,0,0,0,2.86,5.63c2.1,1.88,4.37,3.58,6.44,5.49.82.76,2.63,2.14.31,2.91-2,.68-4.24,2.21-6.54-.82C76,16.57,71.71,13.09,66.06,11.8c-1.45-.33-2.88-1.28-4.1.25s-.74,3.18.18,4.65c2.08,3.3,4.7,6,8.56,7.25,2.25.71,2.8,1.38.57,3.17C68,29.73,64.72,30.2,61.21,28.28c-3.66-2-7.54-2.36-11.55-2.28-1.66,0-3.61-.14-4.12,1.94-.56,2.25,1.31,3.15,2.87,4.13,2.2,1.37,5.19.67,8,3.4-5.74,1.43-8.84,8.38-16,3.85-2-1.29-5.91-1.25-8.57.75-1.13.84-2.64,1.75-2.13,3.6s2,2.49,3.87,2.32,3.44-.3,5.16-.45c-2.56,3.22-4.51,7-9.68,5.56a10.08,10.08,0,0,0-6.84.76c-1.89.86-5,1-4.6,3.66s3.38.92,5.09,1.59a9.1,9.1,0,0,1,1.46,1C21.6,60,19.39,62,16.58,63.05a6.54,6.54,0,0,0-4.12,5.24,2.17,2.17,0,0,0,1.9,2.53c2.65.65,3.89-1.36,5.34-2.92.34-.36.48-1,.86-1.21,1.39-.87,2.9-3.07,3.79.6.69,2.84,2.46,1.59,3.67.36,2.85-2.89,5-6.24,5.19-10.45.1-2.34.53-4.25,3.45-4.86-.15,2.23-.33,4.31-.39,6.39,0,1.12-.23,2.44,1.2,3s2.56-.09,3.6-1.06A12.19,12.19,0,0,0,43.46,57c1.78-3.63,2.08-7.68,3.56-11.36.42-1,.88-2.59,2.3-2.11,1.63.54.4,1.87.31,2.93-.18,2-3,4.26.53,6,3,1.5,4-1.41,5.79-2.56,3.51-2.21,3.13-7.14,6.64-9.69,1.18,2.81.2,7,3.68,7.24,2.79.22,3.67-3.34,5.09-5.55,3.24-5,6.69-9.89,9.91-14.91,1.39-2.16,3.41-2.14,6.82-2.9-2.88,3.55-5,6-6.94,8.6-2.16,3-5.87,5.37-4.73,9.84.53,2.07,1.69,4.77,4.35,2.14,5.41-5.34,10.4-11.1,13.68-18.09,1-2.08,2.11-3.82,4.79-3.52V19C93.61,14.2,88,9.44,82.36,4.59ZM19.25,65c-2,2-5,5-5,3s5-4,5-4S21.25,63,19.25,65Zm3-9a3.49,3.49,0,0,1-2-1,12.38,12.38,0,0,1,3-2c2-1,5,0,5,0S23.25,56,22.25,56Zm7,9c-2,3-3,3-3,1s0-4,1-5l3-3S31.25,62,29.25,65Zm6-20c-3,0-3-2-3-2s0-1,2-2,5,1,5,1S38.25,45,35.25,45Zm3.68,13.36a13.86,13.86,0,0,1,4.34-11C43.12,51.55,42.14,55.39,38.93,58.36ZM50.25,30c-2-1-2-2-2-2h5a7.5,7.5,0,0,1,6,3l-1,1S52.25,31,50.25,30Zm4.9,17.11c-.45.85-1,2-2.2,1.33-1-.57-.18-1.54.21-2.18C55,43.17,55.47,39,60.53,36.71,58.34,41,56.77,44.06,55.15,47.11Zm9.71-32.36c4.51.81,8.66,2.17,10.36,7.24h0l.41.22-.43-.2s0,0,0,0C70.42,21.65,67.11,19,64.86,14.75Zm3.21,27.81c-.43.63-1.15,1.34-2.07.87s-.72-1.38-.72-2.18c0-4.39,6.42-11.48,12.29-12.85C74.17,33.49,71.15,38.05,68.07,42.56Zm11.72-2.19C82,34.11,86.68,29.7,91.58,25.55,88.36,31.09,86.07,37.35,79.79,40.37Zm.66-29.71c-.8-.88-1.62-1.86-.7-3a1.82,1.82,0,0,1,1.73-.34c4.16,3.92,9.9,6.25,12.16,12.07A32.64,32.64,0,0,1,80.45,10.66Z" transform="translate(-8.2 -3.03)"/><path class="cls-2" d="M24.25,115Z" transform="translate(-8.2 -3.03)"/><path class="cls-2" d="M20.25,119Z" transform="translate(-8.2 -3.03)"/></svg>