<svg id="Calque_1" data-name="Calque 1" xmlns="http://www.w3.org/2000/svg" viewBox="0 0 131.92 195.98"><defs><style>.cls-1{fill:#f6e9b9;}.cls-2{fill:#f6eabb;}.cls-3{fill:#f6e9ba;}.cls-4{fill:#f6ebbf;}.cls-5{fill:#f7ebc0;}.cls-6{fill:#f7ecc4;}.cls-7{fill:#f7ecc1;}.cls-8{fill:#fefefe;}</style></defs><title>branches2</title><path class="cls-1" d="M73,157.9v3a20.75,20.75,0,0,0-2.34.79c-7.49,3.51-8.18,4.69-6.27,12.79a32.3,32.3,0,0,1,.6,6.9c0,1.59-.26,3.19-2.18,3.36s-2.2-1.67-2.66-3,.37-3-.92-4.36a3.66,3.66,0,0,0-1.27.42c-1.06.85-1.6,2.84-3.56,1.74-1.61-.91-1.59-2.46-1.08-3.95,1.09-3.1.51-4.28-2.86-2.79-2.27,1-4.89,2.76-5.16-1.9-.07-1.28-1.29-1-1.93-.78-3.82,1.08-7.62,2.23-11.39,3.48-2,.67-2,1.89-.58,3.3,1.65,1.59,2.25,3.88,4.08,5.47a4.46,4.46,0,0,1,1.06,5.5c-.59,1.13-.81,2.78-2.48,2.79a2.56,2.56,0,0,1-2.4-2.74c0-2.21-1.39-3.17-3-4.5C26.39,187.7,24.19,191.84,22,196H21c-1.42-2.29-.87-4.83-1-7.29-.19-3.31-1.1-5.45-5.24-4.23-3.29,1-6.88.63-10.12,2.17-1.61.76-2.89,0-3.57-1.63,2.73-4.05,7.35-5.5,11.16-8s4.08-3.95.33-6.65c-1.36-1-2.81-1.76-3.55-3.35a3.05,3.05,0,0,0,2-3,2.15,2.15,0,0,1,2,1c.31,2.75,2.44,1.85,4,2,3.1,1,4.8.91,3.48-3.21-.69-2.13-2-5.59,1-6.44,3.15-.89,4.79,2.1,5.64,5a18.35,18.35,0,0,1,.73,2.36c.95,6.18,1,6.29,6.84,4.21a75.31,75.31,0,0,1,12-2.89c1-.18,2.13-.28,2-1.59s-1.25-1.45-2.25-1.37a23,23,0,0,0-3.87.63c-1.35.34-3.5.55-3.59-.53-.41-4.85-4.87-4.46-7.5-6.38-1.42-1-2.62-2.48-2.1-4.14.78-2.52,2.8-.95,4.18-.58,3.92,1,7.78,2.34,11.78,3.57C46,153.35,43.82,152,44,150c1.13,0,2.33.17,3.05-1,3.26,1.51,3.43,5.47,6.19,8.14,1.4-3.44-.61-6.12-.6-8.9,0-1.25.07-2.46,1.41-2.74,1.15-.25,1.64.89,2.06,1.8,1.36,2.93,2.86,5.82,4,8.84,1.81,4.74,3.48,5.55,8.15,3A10.43,10.43,0,0,1,73,157.9Z" transform="translate(-1.06)"/><path class="cls-2" d="M133,0V9c-3.48,5.67-3.88,12.22-4.88,18.49-1.76,11.07-3.36,22.21-4.11,33.38-.56,8.33-1,16.64-1.92,24.95-1.43,12.79-4.43,25-11.09,36.15l-2-2c2.8-8.28,7.26-16,8.23-24.89.93-8.46,2.94-16.72,2.21-25.45-.5-6,1-12.14,2-18.14.44-2.5.4-5,.61-7.41l.37-.54-.51.4C113.26,53.59,100.39,58,92,68A2.26,2.26,0,0,0,89.82,67,1.73,1.73,0,0,0,89,65.12c0-1,0-2,0-3.06l7.38-3.9c-5.58-.56-9-6-14.69-5.79-2.12.07-1.86-2.9-3.15-4.09-1.83-1.68-3.76-3.25-5.7-4.8-.89-.71-2.29-1.21-1.47-2.66.71-1.26,2.15-1.06,3.11-.47,4.85,3,4.67-.25,4.51-3.55a4.68,4.68,0,0,1,0-1c.35-2.18-1.2-5.49,1.55-6.23,3.3-.88,2.87,3.19,4.17,4.92,1.36,0,1.11-1.12,1.48-1.77s.88-1.56,1.87-1.28.93,1.34.62,2.05c-1.31,3-.73,5.84.82,8.58.78,1.38.17,2.48-.64,3.65-1.89,2.78-.67,5.09,1.94,6.06,6.27,2.33,11.69,3.66,17.85-.87C119,43.29,124.56,33.2,126.07,20.49A47.88,47.88,0,0,1,133,0Z" transform="translate(-1.06)"/><path class="cls-1" d="M77.77,73.15A15.85,15.85,0,0,1,75.07,82c-1.65-2.56-3.26-3.23-4.94-.24a10.76,10.76,0,0,1-2.91,2.64c-1,.81-2.07,2.1-3.48,1.14-1.24-.84-.33-2.07,0-3.16,1.07-3.71,1.1-6.68-4-7.1-2.43-.2-4.78-1.28-7.16-2-1.07-.33-2.35-.41-2.47-2A2.92,2.92,0,0,1,52,68.09c2.6-1.1,5.2-2.18,7.84-3.15,2.38-.88,4.19-1.76,1.4-4.31-1.25-1.14-1.7-2.58-.24-3.87s2.71-.61,3.8.73C66,59,67.56,61.18,69.38,60.22c1.39-.73.72-3.35.19-5.12-.3-1-.83-2,.18-2.71s1.89,0,2.8.41a6.12,6.12,0,0,1,3.44,4c2.16,7.13,2.22,7.11,9,6.34,0,1.27,0,2.53,0,3.79C80.91,67.05,77.52,67.46,77.77,73.15Z" transform="translate(-1.06)"/><path class="cls-3" d="M92.08,101.9c-.7.42-1.09.79-1.21.72-4.66-2.93-6.61-1.79-6,3.78a7,7,0,0,1-1,3.29c-.31.71-.85,1.67-1.46,1.83-1.4.34-1.27-1.11-1.69-1.92-3-5.8-3.49-6-9.89-3.69-.78.28-1.56.57-2.35.78-1.13.3-2.46.68-3.12-.57a2.33,2.33,0,0,1,1.44-3.27c4.29-1.38,4.84-8.15,10.92-7.18,1.66.27.46-1.6-.09-2.52-.81-1.37-3.82-2.24-1.67-4.31,1.72-1.65,3.24.44,4.7,1.36.52.34,1,.75,1.73,1.29.88-5.57,1.76-10.84,2.54-16.13.33-2.22,1-4.19,3-5.41L90,72C86.4,82.29,84.39,92.47,92.08,101.9Z" transform="translate(-1.06)"/><path class="cls-4" d="M111,122a29.73,29.73,0,0,1-6.87,12.54c-9,10.32-17.86,21-31.13,26.39v-3c10.77-6.18,19.24-15.08,27.45-24.11,3.59-3.94,5.73-9.19,8.52-13.85Z" transform="translate(-1.06)"/><path class="cls-5" d="M47,148.93c-.72,1.22-1.92,1-3.05,1-1.17-1.35-3.09-3.38-1.13-4.45C45.28,144.19,46.47,146.69,47,148.93Z" transform="translate(-1.06)"/><path class="cls-6" d="M89,62.06c0,1,0,2,0,3.06-1.37.5-2.29,2-4,1.79,0-1.26,0-2.52,0-3.79Z" transform="translate(-1.06)"/><path class="cls-6" d="M92,68a5.83,5.83,0,0,1-2,4L88,70a3.24,3.24,0,0,1,1.85-3A2.26,2.26,0,0,1,92,68Z" transform="translate(-1.06)"/><path class="cls-7" d="M11,163.93a3.05,3.05,0,0,1-2,3c-1.23-.66-2.48-1.62-1.66-3C8.29,162.3,9.77,162.71,11,163.93Z" transform="translate(-1.06)"/><path class="cls-7" d="M17,167c-1.59-.17-3.72.73-4-2C14.71,164.9,16.24,165.21,17,167Z" transform="translate(-1.06)"/><path class="cls-8" d="M122.42,43.51l-.37.54-.14-.14Z" transform="translate(-1.06)"/></svg>