<svg data-name="Calque 1" xmlns="http://www.w3.org/2000/svg" viewBox="0 0 134.46 119.39"><path d="M.65 12.82s10.2 10.82 13.4 29.87a16.34 16.34 0 0 0 5 9.29c10.2 9.41 32 9 39 9.28a3.83 3.83 0 0 1 3 1.76c4.39 6.78 7.23 25.58-4.17 56.12h25.2s2.18-12.22-1.65-37.44c-2.7-17.78-.82-26.77.52-30.53a3.54 3.54 0 0 1 3.1-2.33c6.54-.51 27.12-3.64 37.52-23.07a15.22 15.22 0 0 0 1.31-3.46c.93-3.81 4-13.79 11.11-18.27 0 0-10.77-6.75-28.58-2.24S79.58 23.87 79.58 23.87s-4 6.91-1.28 16.92a7.77 7.77 0 0 1-.18 4.77c-1.89 5.06-6.54 17.79-7.84 25.11a28.57 28.57 0 0 0-5.7-9.94 14.72 14.72 0 0 1-3.1-6.28C59.33 44.79 49.05 18.31.65 12.82z" fill="#318951" stroke="#1d1d1b" stroke-miterlimit="10" stroke-width=".5"/></svg>