<svg id="Calque_1" data-name="Calque 1" xmlns="http://www.w3.org/2000/svg" viewBox="0 0 134.46 119.39"><defs><style>.cls-1{fill:#318951;stroke:#1d1d1b;stroke-miterlimit:10;stroke-width:0.5px;}</style></defs><title>favicon</title><path class="cls-1" d="M11.6,23.31S21.8,34.13,25,53.18A16.34,16.34,0,0,0,30,62.47c10.2,9.41,32,9,39,9.28A3.83,3.83,0,0,1,72,73.51c4.39,6.78,7.23,25.58-4.17,56.12h25.2s2.18-12.22-1.65-37.44c-2.7-17.78-.82-26.77.52-30.53A3.54,3.54,0,0,1,95,59.33c6.54-.51,27.12-3.64,37.52-23.07a15.22,15.22,0,0,0,1.31-3.46c.93-3.81,4-13.79,11.11-18.27,0,0-10.77-6.75-28.58-2.24S90.53,34.36,90.53,34.36s-4,6.91-1.28,16.92a7.77,7.77,0,0,1-.18,4.77c-1.89,5.06-6.54,17.79-7.84,25.11a28.57,28.57,0,0,0-5.7-9.94,14.72,14.72,0,0,1-3.1-6.28C70.28,55.28,60,28.8,11.6,23.31Z" transform="translate(-10.95 -10.49)"/></svg>