<svg id="Calque_1" data-name="Calque 1" xmlns="http://www.w3.org/2000/svg" viewBox="0 0 112.06 136.85"><defs><style>.cls-1{fill:#f5e8b7;}.cls-2{fill:#f5e7b4;}.cls-3{fill:#f5e8b5;}</style></defs><title>feuillage</title><path class="cls-1" d="M96.58,47.35c-2.65,3.25-2.88,7.37-4.74,10.78a73.1,73.1,0,0,0-7.07,20.06c-1.32,6.14-7.12,8.31-10.93,12.22-1.93,2-4.37,3.49-7,5.55,4,1.9,8.46,1.65,11.25,5-1.22.7-1.07,1.89-1.09,3-5.61-3.81-11.64-2.88-17.71-1.59a49.87,49.87,0,0,1-16.84.25C31,101.13,25,93.49,21.24,83.4c-.35-.93-.61-1.89-1-2.8a6,6,0,0,0-.87-1.2c-1.93.25-1.89,2.12-2.75,3.21-1.54,2-2.69,4.58-4.69,5.71-4.38,2.47-8.27,4.56-9.2,10.41C2.34,101.22-1.53,102-4.51,102H-10V75c6.25-.84,10,2.19,12.39,7.71.67,1.56-.1,4.42,3.09,4.27a6.8,6.8,0,0,0,6-3.72c7.34-12.75,6.89-25.9,1.52-39C9.87,36.63,5.81,29.36,2,22c-2.44-4.65-6.4-8.52-6.63-14.26A56.52,56.52,0,0,0-6,0h5C3.22,8.89,8.24,16.88,19,18.94a40.8,40.8,0,0,1,6,2.15c-.34,1.32-.69,2.64-1,4L4.73,17.69c2,4.6,3.1,8.56,5.21,11.89,7.19,11.32,10.46,23.61,11.26,37a48.51,48.51,0,0,0,5.87,20.4c7.67,13.81,18.29,13.82,31.09,8.91,8-3,13.87-9.28,20.54-14.32,2.62-2,2.75-5.34,3.09-8.17.45-3.74.75-7.64-.34-11.39-.48-1.68-1-3.59.9-4.41,2.39-1,2.18,1.78,3.38,3C89.48,56.2,91,51.67,89,45.94a39.93,39.93,0,0,1-1.34-21.08c.28-1.53.5-3.62,2.74-3.62S92,23.47,92.29,24.7c1.18,5.66,4.84,10.49,5.12,16.55C97.51,43.5,97.78,45.88,96.58,47.35Z" transform="translate(10)"/><path class="cls-2" d="M62.51,49c-9.49-3-19.37-4-29.2-5.16-3.22-.4-4.82-3.38-7.31-5-.18-1.56.64-3.65-2-3.91-1.46-1.09-.8-2.63-.86-4,2.68-.79,2.26-2.28.9-4l0-1.95c.34-1.32.69-2.64,1-4l2.86-1.27c1.46,1.61,4.09,1.84,4.51.34.71-2.51,3.49-3.48,3.62-6.08h3c.23,1.33.57,2.42,2,.86l4,.13c.42,2.4,1.68,3.85,4.28,3.79,4.32,0,6,3.33,7.28,6.52C59.24,32.32,61,39.6,64.79,46.12,65.9,48,66.13,50.2,62.51,49Z" transform="translate(10)"/><path class="cls-3" d="M99.23,136.85C91.74,130.06,83.57,124.23,79,115l-.91-1c-.59-3.33,1-6.89-1.08-10.07,0-1.13-.13-2.32,1.09-3a4.74,4.74,0,0,0,3.65-1.15c7.2-5.59,13-4.18,17.59,3.83,3,5.21,2.65,10.79,2.74,16.39C100.65,125.42,98.11,130.66,99.23,136.85Z" transform="translate(10)"/><path class="cls-1" d="M36,14.08c-.13,2.6-2.91,3.57-3.62,6.08-.42,1.5-3,1.27-4.51-.34h0C29.32,16.12,32,14.13,36,14.08Z" transform="translate(10)"/><path class="cls-1" d="M49.27,18.87c-2.6.06-3.86-1.39-4.28-3.79C47.93,14.63,49,16.3,49.27,18.87Z" transform="translate(10)"/><path class="cls-1" d="M23.1,31c0-1.4-.58-2.92.9-4C25.36,28.71,25.78,30.2,23.1,31Z" transform="translate(10)"/><path class="cls-1" d="M26,38.92A5.21,5.21,0,0,1,24,35C26.64,35.27,25.82,37.36,26,38.92Z" transform="translate(10)"/><path class="cls-1" d="M41,15c-1.46,1.56-1.8.47-2-.86A1.93,1.93,0,0,1,41,15Z" transform="translate(10)"/><path class="cls-1" d="M78.07,114l.91,1Z" transform="translate(10)"/></svg>