<svg id="Calque_1" data-name="Calque 1" xmlns="http://www.w3.org/2000/svg" viewBox="0 0 135.79 118.31"><defs><style>.cls-1{fill:#f5e7b3;}.cls-2{fill:#fefefe;}.cls-3{fill:#fdfcf6;}</style></defs><title>feuilles</title><path class="cls-1" d="M136.94,106.63c-.38-7.41-3.53-14.56-1.52-22.28.58-2.25-1.11-5.07-2.41-7.44s-2.19-5.13-6-2.52c0-4.63,0-8.62,0-12.6,0-6.25-4.68-10.39-7-15.57-.45-1-1.81-1.34-3.1.36-5.37,7.07-10.7,14.23-16.69,20.75A200.24,200.24,0,0,0,86.27,83.94c-2.45,3.32-3.21,7.56-6.6,10.75-1.84-5.2,0-9.33,3.08-12.84C91.32,72,96.31,60.3,100.29,48.16,103,39.91,98.58,33,94,26.72c-2.67-3.7-6.44-6.6-9.66-9.91-2.59-2.66-4.16-1.93-5.32,1.32-2.6,7.19-3.1,14.93-5.92,22.07-1.51,3.83-2.77,7.77-4,11.7-.38,1.19-.92,1.46-1.84,1.17L67,53c0-.18,0-.35.07-.53,1-7.2,2-14.37,2.84-21.58C71,21.52,68,14,60.08,8.48A61,61,0,0,0,46.07,1C43.7.17,42.91.84,43.61,3.31c2.24,7.92,2.22,16,2.54,24.18.2,5.11,3,10.13.06,15.19-1.61-1.33-.93-3.47-1.22-5.37A242.38,242.38,0,0,0,39.63,10c-1.45-5.37-5.16-7.54-9.87-8.58C21.08-.45,12.65,2.5,4.1,3.22c-1.49.12-1.57,1.39-1.29,2.69C3.13,7.4,2.33,9,2.54,10.3,3.88,18.76.62,27,1.25,35.23c.5,6.44,3.44,12.59,4.42,19.18.54,3.67,4,6.7,8.64,8C26.38,65.72,38.9,65.67,51.07,68a11.11,11.11,0,0,1,2.44.4c1.45.65,3.72,1.16,3.05,3.25-.76,2.32-2.75,1.13-4.18.47-5.51-2.54-11.49-.35-17.2-1.94C27.23,68,19,66.65,11,64.92a5.53,5.53,0,0,1-2.18-1c-.56-.45-.36-2.39-1.78-.86-.6.65-1.29,1.15-1,2.51,2.26,9.48,5.34,18.48,12,26,4.37,4.93,9.55,7.17,16.1,7.51,9.77.52,19.15-1.17,28.51-3.48A23.94,23.94,0,0,1,72,95c1.7.25,2.87,1,2.87,2.82,0,2.2-1.69,2.2-3.2,2.13-12.06-.59-24,3.06-36.1,1.1-3.09-.5-6.25.13-9.38.76-2.61.53-5,1-5.83,3.81a8.36,8.36,0,0,0,2.34,8.68c1.43,1.38,3.4,2.19,2.34,4.69H136C135.46,114.79,137.15,110.75,136.94,106.63ZM63.48,71.15c-1.07-7.39-.11-13,3.51-18.11C69.05,59.22,66.2,64.48,63.48,71.15ZM92.65,114.2c-.69-5.83,2.58-9.42,10.31-11.87C98.71,106,95.89,109.78,92.65,114.2Z" transform="translate(-1.17 -0.67)"/><path class="cls-2" d="M67,53l0,0v0Z" transform="translate(-1.17 -0.67)"/><path class="cls-3" d="M67,53l0,0A.24.24,0,0,0,67,53Z" transform="translate(-1.17 -0.67)"/></svg>