<svg data-name="Calque 1" xmlns="http://www.w3.org/2000/svg" viewBox="0 0 135.79 118.31"><path d="M135.77 105.96c-.38-7.41-3.53-14.56-1.52-22.28.58-2.25-1.11-5.07-2.41-7.44s-2.19-5.13-6-2.52v-12.6c0-6.25-4.68-10.39-7-15.57-.45-1-1.81-1.34-3.1.36-5.37 7.07-10.7 14.23-16.69 20.75A200.24 200.24 0 0 0 85.1 83.27c-2.45 3.32-3.21 7.56-6.6 10.75-1.84-5.2 0-9.33 3.08-12.84 8.57-9.85 13.56-21.55 17.54-33.69 2.71-8.25-1.71-15.16-6.29-21.44-2.67-3.7-6.44-6.6-9.66-9.91-2.59-2.66-4.16-1.93-5.32 1.32-2.6 7.19-3.1 14.93-5.92 22.07-1.51 3.83-2.77 7.77-4 11.7-.38 1.19-.92 1.46-1.84 1.17l-.26-.07c0-.18 0-.35.07-.53 1-7.2 2-14.37 2.84-21.58 1.09-9.37-1.91-16.89-9.83-22.41A61 61 0 0 0 44.9.33c-2.37-.83-3.16-.16-2.46 2.31 2.24 7.92 2.22 16 2.54 24.18.2 5.11 3 10.13.06 15.19-1.61-1.33-.93-3.47-1.22-5.37a242.38 242.38 0 0 0-5.36-27.31C37.01 3.96 33.3 1.79 28.59.75c-8.68-1.87-17.11 1.08-25.66 1.8-1.49.12-1.57 1.39-1.29 2.69.32 1.49-.48 3.09-.27 4.39C2.71 18.09-.55 26.33.08 34.56.58 41 3.52 47.15 4.5 53.74c.54 3.67 4 6.7 8.64 8C25.21 65.05 37.73 65 49.9 67.33a11.11 11.11 0 0 1 2.44.4c1.45.65 3.72 1.16 3.05 3.25-.76 2.32-2.75 1.13-4.18.47-5.51-2.54-11.49-.35-17.2-1.94-7.95-2.18-16.18-3.53-24.18-5.26a5.53 5.53 0 0 1-2.18-1c-.56-.45-.36-2.39-1.78-.86-.6.65-1.29 1.15-1 2.51 2.26 9.48 5.34 18.48 12 26 4.37 4.93 9.55 7.17 16.1 7.51 9.77.52 19.15-1.17 28.51-3.48a23.94 23.94 0 0 1 9.35-.6c1.7.25 2.87 1 2.87 2.82 0 2.2-1.69 2.2-3.2 2.13-12.06-.59-24 3.06-36.1 1.1-3.09-.5-6.25.13-9.38.76-2.61.53-5 1-5.83 3.81a8.36 8.36 0 0 0 2.34 8.68c1.43 1.38 3.4 2.19 2.34 4.69h110.96c-.54-4.2 1.15-8.24.94-12.36zM62.31 70.48c-1.07-7.39-.11-13 3.51-18.11 2.06 6.18-.79 11.44-3.51 18.11zm29.17 43.05c-.69-5.83 2.58-9.42 10.31-11.87-4.25 3.67-7.07 7.45-10.31 11.87z" fill="#f5e7b3"/></svg>