<svg data-name="Calque 1" xmlns="http://www.w3.org/2000/svg" viewBox="0 0 93.99 177.19"><path d="M49.21 65.69c-.1 1.58 1.16 2.21 2.61 2.58 12 2.81 24.06 4.94 36.2.6 2.31-.82 3.95-.71 4 2.33a79.21 79.21 0 0 1-2.89 23.07c-.81 2.84-2.59 4-5.49 4a41.62 41.62 0 0 1-16-3.17c-8-3.18-16-5.62-24.5-1.76-1.1.49-2.43 1-2.29 2.24.07.61 1.42 1.23 2.3 1.56 2.94 1.13 6 1.9 8.9 3.21 10.07 4.62 20.47 6.23 31.34 3.62 2.08-.5 3-.67 2.84 2.1a72.63 72.63 0 0 1-5.2 23.41c-.84 2-1.29 4.32-3.33 6-4.66 3.78-13.92 4.16-19.35-.61-8.65-7.59-18.8-11.49-29.66-14.37a48.94 48.94 0 0 0-12.87-1.23c-1 0-2.1-.08-2.55 1.08s.3 1.86.94 2.65c3.21 3.9 6.84 6.59 12.23 7.41 7.92 1.21 15.66 3.91 21.55 9.59s11.65 9.83 20 7.85a2.89 2.89 0 0 1-.55 3.2c-2.63 3.78-6.27 6.78-9 10.27-4.6 5.78-11.27 7.21-17 10.52-1.67.95-3.61.41-5.25-.59-6.81-4.16-13.64-8.33-17.8-15.52-3-5.16-5.81-10.42-8.84-15.57-1.38-2.36-3.05-6.1-5.8-5-2.12.87-2.16 4.92-1.28 7.82a13.88 13.88 0 0 0 .64 1.88c4.54 10.05 8 20.74 16.52 28.46a3.7 3.7 0 0 1 1.51 3.66c-3.43.77-6-1.21-8.62-2.86-4-2.42-7.82-5.06-12.52-5.85v-161c5.63-1.43 6.94-1 6.32 2.21-1 5.07.4 9.53 2.69 13.88a26.89 26.89 0 0 1 3.1 10.91c.46 6.67 1.79 13.19 7.26 18 1.87 1.62 3.71 4.34 6.31 2.68 2.8-1.78 1.29-4.87.24-7.18-3-6.51-6.26-12.86-9.28-19.35a35.46 35.46 0 0 1-3.6-17.36c.2-3.1 1.15-6.08 4.32-7.29a31.54 31.54 0 0 1 10.62-2.5c6.11-.1 6.08-.14 3.57 5.26a8 8 0 0 0-.54 2.9c-.33 7.08 1.42 13.84 3.81 20.4a13.57 13.57 0 0 0 4.3 6c3.21 2.61 5.87 1.82 7-2.11 2.27-8.24.31-16.09-2.22-23.9-.91-2.81-2.77-6.3-1.18-8.5 1.8-2.48 5.46-.89 8.38-.3 2 .4 3.92.58 5.71 1.58 6.12 3.49 12.33 2.67 18.38-.18 2-1 2.93-.68 2.72 1.46-.46 4.59 1.79 8.29 3.39 12.3s4.52 7.26 5.22 11.71c.38 2.42-.23 3.63-2.26 4.09-8 1.81-14.48 6.51-21.18 10.74-2 1.23-6.12.77-5.6 3.89.56 3.37 4.56 1.69 6.86 2.11 7.92 1.43 15.51.12 22-5.11 4.26-3.41 4.53-3.34 6.48 1.53a19.85 19.85 0 0 0 1.17 2.13v10c-5.81 8.05-13.65 8.6-22.74 7.22-6.15-.94-12.49-1.9-18.84-1.22-1.59.16-3.09.53-3.2 2.42z" fill="#f5e7b4"/></svg>