<svg id="Calque_1" data-name="Calque 1" xmlns="http://www.w3.org/2000/svg" viewBox="0 0 85.78 42.23"><defs><style>.cls-1{fill:#f5e7b4;}</style></defs><title>logoDRYP2</title><path class="cls-1" d="M65.93,58.49c-17.69-12.85-39.78-6.68-39.78-6.68S16.82,53.44,9.73,63.54A9.26,9.26,0,0,1,5.25,67C3.88,67.48,2,68.14-.08,68.91a7,7,0,0,1,.09.92,4,4,0,0,1-.11,1A4.15,4.15,0,0,1,0,71.8v3c.86-.41,1.65-.74,2.29-1a4.2,4.2,0,0,1,4.47,1c5.43,5.57,24,22,49.62,16.65a17.3,17.3,0,0,0,4.15-1.44c4.2-2,15.62-6.87,25.14-3.78C85.68,86.3,83.62,71.34,65.93,58.49Z" transform="translate(0.1 -50.33)"/></svg>