<svg id="Calque_1" data-name="Calque 1" xmlns="http://www.w3.org/2000/svg" xmlns:xlink="http://www.w3.org/1999/xlink" viewBox="0 0 86.28 43.25"><defs><style>.cls-1{fill:url(#Dégradé_sans_nom_13);}.cls-2{fill:#f5e7b4;}</style><linearGradient id="Dégradé_sans_nom_13" x1="41.7" y1="2.26" x2="41.7" y2="44.43" gradientUnits="userSpaceOnUse"><stop offset="0" stop-color="#8f8f8f"/><stop offset="0.68"/></linearGradient></defs><title>logoDRYP2</title><path class="cls-1" d="M64.84,10.42C47.15-2.43,25.06,3.74,25.06,3.74S15.73,5.37,8.64,15.47a9.26,9.26,0,0,1-4.48,3.46c-1.37.48-3.25,1.14-5.33,1.91a7,7,0,0,1,.09.92,3.79,3.79,0,0,1-.11,1,3.9,3.9,0,0,1,.1,1v3c.86-.41,1.65-.74,2.29-1a4.19,4.19,0,0,1,4.47,1c5.43,5.57,24,22,49.62,16.65a17.75,17.75,0,0,0,4.15-1.44c4.2-2,15.62-6.87,25.14-3.78C84.59,38.23,82.53,23.27,64.84,10.42Z" transform="translate(1.19 -1.18)"/><path class="cls-2" d="M65.36,9.34C47.67-3.51,25.58,2.66,25.58,2.66S16.25,4.29,9.16,14.39a9.3,9.3,0,0,1-4.48,3.46C3.31,18.33,1.43,19-.65,19.76a7.16,7.16,0,0,1,.09.92,4.2,4.2,0,0,1-.11,1,4.57,4.57,0,0,1,.1,1v3c.86-.41,1.65-.74,2.29-1a4.2,4.2,0,0,1,4.47,1c5.43,5.57,24,22,49.62,16.65A17,17,0,0,0,60,40.86c4.2-2,15.62-6.87,25.14-3.78C85.11,37.15,83.05,22.19,65.36,9.34Z" transform="translate(1.19 -1.18)"/></svg>